<svg width="49" height="49" viewBox="0 0 49 49" fill="none" xmlns="http://www.w3.org/2000/svg">
<circle cx="24.5" cy="24.5" r="24.5" fill="#C6C6C6"/>
<path d="M34.3973 24.7129L33.2445 35.6816C33.2038 36.0683 32.827 36.3456 32.4027 36.301L16.0159 34.5786C15.5916 34.534 15.2807 34.1845 15.3213 33.7978L16.4742 22.8291" stroke="#FF5656" stroke-width="2" stroke-linecap="round" stroke-linejoin="round"/>
<path d="M22.1394 30.5032L22.8753 23.502" stroke="#FF5656" stroke-width="2" stroke-linecap="round" stroke-linejoin="round"/>
<path d="M27.2603 31.0416L27.9962 24.0403" stroke="#FF5656" stroke-width="2" stroke-linecap="round" stroke-linejoin="round"/>
<path d="M37.4483 20.3146L31.0472 19.6419M31.0472 19.6419L31.4642 15.6745C31.5049 15.2878 31.1939 14.9382 30.7697 14.8936L22.0641 13.9786C21.6399 13.934 21.2631 14.2113 21.2224 14.598L20.8054 18.5654M31.0472 19.6419L20.8054 18.5654M14.4043 17.8926L20.8054 18.5654" stroke="#FF5656" stroke-width="2" stroke-linecap="round" stroke-linejoin="round"/>
</svg>
