<svg width="200" height="200" viewBox="0 0 200 200" fill="none" xmlns="http://www.w3.org/2000/svg">
<path d="M162.5 112.5C148.779 112.5 137.5 123.779 137.5 137.5V150H125V200H200V150H187.5V137.5C187.5 123.779 176.221 112.5 162.5 112.5ZM162.5 125C169.531 125 175 130.469 175 137.5V150H150V137.5C150 130.469 155.469 125 162.5 125Z" fill="#E8400B"/>
<path d="M50 0C25 0 25 25 25 25V175C25 200 50 200 50 200H112.5V137.5H50V112.5H133.35C140.332 104.004 150.83 98.4375 162.5 98.4375C166.895 98.4375 171.094 99.3652 175 100.781V37.5L137.5 0H50ZM62.5 75L75 75.0976V100.098H50V87.5C50 87.5 50 75 62.5 75ZM137.5 75C150 75 150 87.5 150 87.5L149.951 100H124.951V75H137.5ZM87.5 75.0976H112.5V100.098H87.5V75.0976ZM50 150.049H75V175.049L62.5 175C50 175 50 162.5 50 162.5V150.049ZM87.5 150.049H112.5V175.049H87.5V150.049Z" fill="#00AFE7"/>
</svg>
